<?xml version="1.0" encoding="utf-8"?>
<!-- Svg Vector Icons : http://www.onlinewebfonts.com/icon -->
<!DOCTYPE svg PUBLIC "-//W3C//DTD SVG 1.1//EN" "http://www.w3.org/Graphics/SVG/1.1/DTD/svg11.dtd">
<svg version="1.1" xmlns="http://www.w3.org/2000/svg" xmlns:xlink="http://www.w3.org/1999/xlink" x="0px" y="0px" viewBox="0 0 1000 1000" enable-background="new 0 0 1000 1000" xml:space="preserve">
<metadata> Svg Vector Icons : http://www.onlinewebfonts.com/icon </metadata>
<g><g transform="translate(0.000000,511.000000) scale(0.100000,-0.100000)"><path d="M1836.2,5003.7c-267.1-55-524-134.6-664.7-205.9c-358.8-179.4-815.6-889-986.8-1529.2c-57.1-214.1-99.9-656.5-79.5-819.6c26.5-205.9,148.8-727.9,201.9-854.3c28.5-71.4,126.4-328.3,216.1-575C800.4,253.1,977.8-109.8,1348.9-664.4c542.3-813.5,1451.7-1782,2352.9-2505.8c542.3-434.3,1300.8-884.9,1875.8-1109.2c358.8-138.6,1048-379.2,1253.9-434.3c564.8-152.9,1052.1-144.8,1555.7,22.4c397.6,134.6,852.2,397.6,1123.4,652.4c167.2,159,254.9,316,338.4,609.6c44.9,161.1,51,216.1,51,542.3v362.9l-71.4,53c-40.8,30.6-197.8,122.3-352.7,203.9c-460.8,246.7-1184.6,660.6-1374.2,791.1c-244.7,165.1-395.5,240.6-477.1,240.6c-177.4,0-432.2-216.1-793.1-672.8c-232.4-295.6-438.4-505.6-544.4-556.6c-148.8-71.4-275.3-38.7-607.6,159c-61.2,36.7-226.3,134.6-367,216.1C4319.5-1502.3,3538.7-737.8,2943.3,230.7c-79.5,130.5-208,338.5-283.4,460.8c-142.7,230.4-222.2,418-226.3,534.2c-6.1,136.6,263,440.4,632.1,713.6c432.2,322.1,658.6,601.5,625.9,774.8c-18.3,99.9-87.7,232.4-224.3,434.3c-61.2,89.7-132.5,203.9-155,250.8c-24.5,46.9-85.6,148.8-134.6,226.3c-51,77.5-201.9,348.7-336.4,601.5c-415.9,776.8-450.6,819.6-689.1,815.6C2078.8,5042.5,1938.1,5024.1,1836.2,5003.7z"/></g></g>
</svg>